<svg xmlns="http://www.w3.org/2000/svg" viewBox="0 0 112.37 114.97"><defs><style>.cls-1{isolation:isolate;}.cls-2{fill:#ecb79e;}.cls-3{fill:#d1d3d4;}.cls-3,.cls-6{mix-blend-mode:multiply;}.cls-4{fill:#fff;}.cls-5{fill:#ec524f;}.cls-6{fill:#bcbec0;}.cls-7{fill:#003b40;}.cls-8{fill:#002c31;}.cls-9{fill:#3c2415;}</style></defs><title>Asset 1</title><g class="cls-1"><g id="Layer_2" data-name="Layer 2"><g id="Capa_1" data-name="Capa 1"><rect class="cls-2" x="45.5" y="69.95" width="21.3" height="11.21"/><path class="cls-3" d="M51.45,78.54a20.38,20.38,0,0,0,9.4-2.63A16.9,16.9,0,0,0,66,71.48c.26-.34.54-.72.8-1.13V70H45.5v8.39A47.39,47.39,0,0,0,51.45,78.54Z"/><path class="cls-2" d="M56.16,7h0c-13.61.39-24,6-24,25.27,0,11.43,1.07,14.8,4.4,27.85,2.31,9,14.57,13.79,19.25,14.1l.31,0,.31,0C61.13,74,73.4,69.19,75.7,60.16c3.33-13,4.38-16.42,4.41-27.85C80.16,13,69.77,7.43,56.16,7Z"/><path class="cls-2" d="M77.5,40.24,76,51.63c5.85,2.57,6.76-10.83,6.76-10.83C81.42,37.46,77.5,40.24,77.5,40.24Z"/><path class="cls-2" d="M28.81,40.8s.91,13.4,6.76,10.83L34.08,40.24S30.16,37.46,28.81,40.8Z"/><path class="cls-2" d="M67,81.16l28.78,7.49s9.81,1.5,12.32,10.32l4.29,16H0L4.29,99C6.8,90.15,16.62,88.65,16.62,88.65L45.3,81.16Z"/><path class="cls-4" d="M0,115,4.29,99C6.8,90.15,16.62,88.65,16.62,88.65L45.3,81.16H67l28.78,7.49s9.81,1.5,12.32,10.32l4.29,16"/><polygon class="cls-5" points="58.04 81.16 56.22 81.16 56.15 81.16 54.34 81.16 49.07 89.47 53.78 94.77 56.15 94.77 56.22 94.77 58.59 94.77 63.31 89.47 58.04 81.16"/><path class="cls-6" d="M58.81,93.76a14.83,14.83,0,0,1-3.59-12.6h-.88l-5.27,8.31,4.71,5.3h4.81l.58-.65Z"/><polygon class="cls-6" points="66.83 75.56 56.1 81.16 63.18 91.81 76.01 84.08 66.83 75.56"/><polygon class="cls-4" points="66.83 75.56 56.1 81.16 63.3 90.39 75.31 83.44 66.83 75.56"/><polygon class="cls-6" points="45.44 75.56 56.1 81.16 49.1 91.81 36.26 84.08 45.44 75.56"/><polygon class="cls-4" points="45.44 75.56 56.17 81.16 48.97 90.39 36.97 83.44 45.44 75.56"/><path class="cls-7" d="M37.1,83.32,16.62,88.65S6.8,90.15,4.29,99L0,115H112.37l-4.29-16c-2.51-8.82-12.32-10.32-12.32-10.32L74.3,82.49,56.1,114.17Z"/><polygon class="cls-5" points="53.7 94.77 51.13 106.09 56.1 114.17 60.75 106.09 58.51 94.77 53.7 94.77"/><polygon class="cls-8" points="37.1 83.31 27.4 85.84 32.87 87.97 29.49 91.81 49.07 114.97 56.67 114.97 37.1 83.31"/><polygon class="cls-8" points="74.3 82.49 84.98 85.56 79.51 87.97 82.89 91.81 63.31 114.97 55.71 114.97 74.3 82.49"/><path class="cls-9" d="M34.06,40.86l1.2,14.45c-6.32-17-2.67-39.23-2.67-39.23,2-8.21,3.88-9.6,7.13-11.31s2-1.39,7.13-2.63,0,0,6.91-1.71A17.3,17.3,0,0,1,66.44,2.6c4.73,2.78,7.67,4.18,7.67,4.18,10.38,8.06,5.64,30.37,5.64,30.37.36,9.22-3.19,19.67-3.19,19.67l.8-18.71c0-25.84-13.19-23.55-13.19-23.55-7,1.36-15.46,0-15.46,0s-15.82-4.85-14.65,26"/><path class="cls-9" d="M42,14.27s14.44,14,34.49,13.78c0,0,5.1-19.21-13.21-21.62Z"/></g></g></g></svg>